<svg id="visual" viewBox="0 0 1920 1080" width="1920" height="1080" xmlns="http://www.w3.org/2000/svg" xmlns:xlink="http://www.w3.org/1999/xlink" version="1.1"><g stroke-width="1" stroke-linejoin="bevel"><path d="M976.8 503L940.2 347L839.2 497Z" fill="#373737" stroke="#373737"></path><path d="M940.2 347L879.2 335L839.2 497Z" fill="#3b3b3b" stroke="#3b3b3b"></path><path d="M879.2 335L779.5 374L839.2 497Z" fill="#3d3d3d" stroke="#3d3d3d"></path><path d="M976.8 503L1072.8 360L940.2 347Z" fill="#333333" stroke="#333333"></path><path d="M940.2 347L1008.8 186L879.2 335Z" fill="#373737" stroke="#373737"></path><path d="M839.2 497L943.2 660L976.8 503Z" fill="#353535" stroke="#353535"></path><path d="M976.8 503L1146.5 472L1072.8 360Z" fill="#383838" stroke="#383838"></path><path d="M779.5 374L687.5 507L839.2 497Z" fill="#323232" stroke="#323232"></path><path d="M839.2 497L809.5 730L943.2 660Z" fill="#323232" stroke="#323232"></path><path d="M1185.5 668L1146.5 472L976.8 503Z" fill="#323232" stroke="#323232"></path><path d="M1146.5 472L1138.5 359L1072.8 360Z" fill="#2f2f2f" stroke="#2f2f2f"></path><path d="M1072.8 360L1089.8 260L940.2 347Z" fill="#373737" stroke="#373737"></path><path d="M1138.5 359L1089.8 260L1072.8 360Z" fill="#3d3d3d" stroke="#3d3d3d"></path><path d="M865.2 794L979.8 690L943.2 660Z" fill="#3a3a3a" stroke="#3a3a3a"></path><path d="M943.2 660L979.8 690L976.8 503Z" fill="#383838" stroke="#383838"></path><path d="M779.5 374L643.8 459L687.5 507Z" fill="#353535" stroke="#353535"></path><path d="M1089.8 260L1008.8 186L940.2 347Z" fill="#3a3a3a" stroke="#3a3a3a"></path><path d="M879.2 335L677.5 243L779.5 374Z" fill="#2d2d2d" stroke="#2d2d2d"></path><path d="M779.5 374L677.5 243L643.8 459Z" fill="#3d3d3d" stroke="#3d3d3d"></path><path d="M1008.8 186L892.2 145L879.2 335Z" fill="#303030" stroke="#303030"></path><path d="M892.2 145L677.5 243L879.2 335Z" fill="#303030" stroke="#303030"></path><path d="M511.1 456L618.8 538L643.8 459Z" fill="#333333" stroke="#333333"></path><path d="M643.8 459L618.8 538L687.5 507Z" fill="#353535" stroke="#353535"></path><path d="M687.5 507L809.5 730L839.2 497Z" fill="#2f2f2f" stroke="#2f2f2f"></path><path d="M650.8 663L809.5 730L687.5 507Z" fill="#373737" stroke="#373737"></path><path d="M618.8 538L650.8 663L687.5 507Z" fill="#323232" stroke="#323232"></path><path d="M1138.5 359L1224.5 276L1089.8 260Z" fill="#2f2f2f" stroke="#2f2f2f"></path><path d="M1089.8 260L1220.5 205L1008.8 186Z" fill="#303030" stroke="#303030"></path><path d="M1259.2 325L1224.5 276L1138.5 359Z" fill="#3b3b3b" stroke="#3b3b3b"></path><path d="M892.2 145L767.5 110L677.5 243Z" fill="#303030" stroke="#303030"></path><path d="M1091.8 819L1185.5 668L979.8 690Z" fill="#2f2f2f" stroke="#2f2f2f"></path><path d="M979.8 690L1185.5 668L976.8 503Z" fill="#2d2d2d" stroke="#2d2d2d"></path><path d="M1299.2 411L1259.2 325L1138.5 359Z" fill="#353535" stroke="#353535"></path><path d="M767.5 110L629.8 211L677.5 243Z" fill="#323232" stroke="#323232"></path><path d="M677.5 243L511.1 456L643.8 459Z" fill="#383838" stroke="#383838"></path><path d="M701.5 813L865.2 794L809.5 730Z" fill="#3d3d3d" stroke="#3d3d3d"></path><path d="M809.5 730L865.2 794L943.2 660Z" fill="#2d2d2d" stroke="#2d2d2d"></path><path d="M1299.2 411L1138.5 359L1146.5 472Z" fill="#373737" stroke="#373737"></path><path d="M1259.2 325L1220.5 205L1224.5 276Z" fill="#383838" stroke="#383838"></path><path d="M1224.5 276L1220.5 205L1089.8 260Z" fill="#373737" stroke="#373737"></path><path d="M961.8 0L903.2 0L892.2 145Z" fill="#353535" stroke="#353535"></path><path d="M892.2 145L903.2 0L767.5 110Z" fill="#383838" stroke="#383838"></path><path d="M1379.2 581L1299.2 411L1146.5 472Z" fill="#353535" stroke="#353535"></path><path d="M1259.2 325L1419.9 319L1220.5 205Z" fill="#383838" stroke="#383838"></path><path d="M629.8 211L511.1 456L677.5 243Z" fill="#383838" stroke="#383838"></path><path d="M445.1 738L621.8 747L650.8 663Z" fill="#353535" stroke="#353535"></path><path d="M865.2 794L1091.8 819L979.8 690Z" fill="#2f2f2f" stroke="#2f2f2f"></path><path d="M484.1 509L650.8 663L618.8 538Z" fill="#2d2d2d" stroke="#2d2d2d"></path><path d="M650.8 663L701.5 813L809.5 730Z" fill="#303030" stroke="#303030"></path><path d="M621.8 747L701.5 813L650.8 663Z" fill="#383838" stroke="#383838"></path><path d="M865.2 794L848.2 918L1091.8 819Z" fill="#2d2d2d" stroke="#2d2d2d"></path><path d="M313.4 419L484.1 509L511.1 456Z" fill="#2f2f2f" stroke="#2f2f2f"></path><path d="M511.1 456L484.1 509L618.8 538Z" fill="#3b3b3b" stroke="#3b3b3b"></path><path d="M961.8 0L892.2 145L1008.8 186Z" fill="#3b3b3b" stroke="#3b3b3b"></path><path d="M767.5 110L605.8 80L629.8 211Z" fill="#383838" stroke="#383838"></path><path d="M1171.5 0L961.8 0L1008.8 186Z" fill="#3b3b3b" stroke="#3b3b3b"></path><path d="M666.5 0L605.8 80L767.5 110Z" fill="#3a3a3a" stroke="#3a3a3a"></path><path d="M629.8 211L425.1 316L511.1 456Z" fill="#3d3d3d" stroke="#3d3d3d"></path><path d="M1091.8 819L1180.5 822L1185.5 668Z" fill="#323232" stroke="#323232"></path><path d="M1185.5 668L1379.2 581L1146.5 472Z" fill="#3a3a3a" stroke="#3a3a3a"></path><path d="M1118.5 963L1180.5 822L1091.8 819Z" fill="#3d3d3d" stroke="#3d3d3d"></path><path d="M701.5 813L848.2 918L865.2 794Z" fill="#323232" stroke="#323232"></path><path d="M1331.2 722L1379.2 581L1185.5 668Z" fill="#2d2d2d" stroke="#2d2d2d"></path><path d="M1266.2 0L1171.5 0L1220.5 205Z" fill="#3d3d3d" stroke="#3d3d3d"></path><path d="M903.2 0L666.5 0L767.5 110Z" fill="#3b3b3b" stroke="#3b3b3b"></path><path d="M503.1 139L629.8 211L605.8 80Z" fill="#333333" stroke="#333333"></path><path d="M503.1 139L425.1 316L629.8 211Z" fill="#303030" stroke="#303030"></path><path d="M534.8 0L503.1 139L605.8 80Z" fill="#3d3d3d" stroke="#3d3d3d"></path><path d="M1419.9 319L1259.2 325L1299.2 411Z" fill="#323232" stroke="#323232"></path><path d="M1220.5 205L1171.5 0L1008.8 186Z" fill="#323232" stroke="#323232"></path><path d="M1274.2 815L1331.2 722L1185.5 668Z" fill="#333333" stroke="#333333"></path><path d="M1467.9 351L1419.9 319L1299.2 411Z" fill="#373737" stroke="#373737"></path><path d="M1118.5 963L1274.2 815L1180.5 822Z" fill="#303030" stroke="#303030"></path><path d="M1180.5 822L1274.2 815L1185.5 668Z" fill="#3a3a3a" stroke="#3a3a3a"></path><path d="M701.5 813L692.5 923L848.2 918Z" fill="#3b3b3b" stroke="#3b3b3b"></path><path d="M621.8 747L692.5 923L701.5 813Z" fill="#323232" stroke="#323232"></path><path d="M557.8 971L692.5 923L621.8 747Z" fill="#3d3d3d" stroke="#3d3d3d"></path><path d="M1118.5 963L1082.8 949L983.8 1080Z" fill="#3b3b3b" stroke="#3b3b3b"></path><path d="M848.2 918L1082.8 949L1091.8 819Z" fill="#353535" stroke="#353535"></path><path d="M1419.9 319L1343.2 108L1220.5 205Z" fill="#303030" stroke="#303030"></path><path d="M1331.2 722L1420.9 652L1379.2 581Z" fill="#3a3a3a" stroke="#3a3a3a"></path><path d="M1500.9 498L1467.9 351L1299.2 411Z" fill="#2d2d2d" stroke="#2d2d2d"></path><path d="M1572.6 631L1420.9 652L1530.9 739Z" fill="#353535" stroke="#353535"></path><path d="M366.4 683L445.1 738L484.1 509Z" fill="#353535" stroke="#353535"></path><path d="M484.1 509L445.1 738L650.8 663Z" fill="#3a3a3a" stroke="#3a3a3a"></path><path d="M1343.2 108L1266.2 0L1220.5 205Z" fill="#383838" stroke="#383838"></path><path d="M1500.9 498L1299.2 411L1379.2 581Z" fill="#333333" stroke="#333333"></path><path d="M1419.9 319L1480.9 86L1343.2 108Z" fill="#323232" stroke="#323232"></path><path d="M983.8 1080L1082.8 949L848.2 918Z" fill="#3b3b3b" stroke="#3b3b3b"></path><path d="M1082.8 949L1118.5 963L1091.8 819Z" fill="#383838" stroke="#383838"></path><path d="M666.5 0L534.8 0L605.8 80Z" fill="#3d3d3d" stroke="#3d3d3d"></path><path d="M226.4 215L313.4 419L425.1 316Z" fill="#3a3a3a" stroke="#3a3a3a"></path><path d="M1420.9 652L1500.9 498L1379.2 581Z" fill="#323232" stroke="#323232"></path><path d="M226.4 215L425.1 316L244.4 160Z" fill="#333333" stroke="#333333"></path><path d="M425.1 316L313.4 419L511.1 456Z" fill="#323232" stroke="#323232"></path><path d="M231.4 571L366.4 683L484.1 509Z" fill="#3b3b3b" stroke="#3b3b3b"></path><path d="M445.1 738L433.1 838L621.8 747Z" fill="#323232" stroke="#323232"></path><path d="M269.4 799L433.1 838L445.1 738Z" fill="#333333" stroke="#333333"></path><path d="M433.1 838L557.8 971L621.8 747Z" fill="#333333" stroke="#333333"></path><path d="M744.5 1080L877.2 1080L848.2 918Z" fill="#2f2f2f" stroke="#2f2f2f"></path><path d="M744.5 1080L848.2 918L692.5 923Z" fill="#383838" stroke="#383838"></path><path d="M877.2 1080L983.8 1080L848.2 918Z" fill="#2f2f2f" stroke="#2f2f2f"></path><path d="M590.8 1080L744.5 1080L692.5 923Z" fill="#333333" stroke="#333333"></path><path d="M1581.6 166L1480.9 86L1419.9 319Z" fill="#2d2d2d" stroke="#2d2d2d"></path><path d="M1343.2 108L1480.9 86L1266.2 0Z" fill="#323232" stroke="#323232"></path><path d="M1581.6 166L1419.9 319L1467.9 351Z" fill="#333333" stroke="#333333"></path><path d="M534.8 0L399.1 0L503.1 139Z" fill="#383838" stroke="#383838"></path><path d="M1500.9 498L1582.6 327L1467.9 351Z" fill="#323232" stroke="#323232"></path><path d="M1420.9 652L1572.6 631L1500.9 498Z" fill="#373737" stroke="#373737"></path><path d="M1500.9 498L1643.6 338L1582.6 327Z" fill="#3d3d3d" stroke="#3d3d3d"></path><path d="M1530.9 739L1420.9 652L1331.2 722Z" fill="#373737" stroke="#373737"></path><path d="M1530.9 739L1331.2 722L1445.9 899Z" fill="#383838" stroke="#383838"></path><path d="M1331.2 722L1274.2 815L1445.9 899Z" fill="#2d2d2d" stroke="#2d2d2d"></path><path d="M1347.2 993L1274.2 815L1118.5 963Z" fill="#373737" stroke="#373737"></path><path d="M313.4 419L231.4 571L484.1 509Z" fill="#2d2d2d" stroke="#2d2d2d"></path><path d="M269.4 799L331.4 874L433.1 838Z" fill="#2f2f2f" stroke="#2f2f2f"></path><path d="M172.7 447L231.4 571L313.4 419Z" fill="#323232" stroke="#323232"></path><path d="M983.8 1080L1166.5 1080L1118.5 963Z" fill="#353535" stroke="#353535"></path><path d="M1280.2 1080L1347.2 993L1118.5 963Z" fill="#353535" stroke="#353535"></path><path d="M1347.2 993L1445.9 899L1274.2 815Z" fill="#353535" stroke="#353535"></path><path d="M557.8 971L590.8 1080L692.5 923Z" fill="#303030" stroke="#303030"></path><path d="M441.1 1000L590.8 1080L557.8 971Z" fill="#383838" stroke="#383838"></path><path d="M441.1 1000L557.8 971L433.1 838Z" fill="#2d2d2d" stroke="#2d2d2d"></path><path d="M244.4 160L425.1 316L503.1 139Z" fill="#3a3a3a" stroke="#3a3a3a"></path><path d="M399.1 0L244.4 160L503.1 139Z" fill="#373737" stroke="#373737"></path><path d="M336.4 0L244.4 160L399.1 0Z" fill="#323232" stroke="#323232"></path><path d="M1582.6 327L1581.6 166L1467.9 351Z" fill="#2f2f2f" stroke="#2f2f2f"></path><path d="M269.4 799L445.1 738L366.4 683Z" fill="#3a3a3a" stroke="#3a3a3a"></path><path d="M331.4 874L441.1 1000L433.1 838Z" fill="#353535" stroke="#353535"></path><path d="M173.7 684L269.4 799L366.4 683Z" fill="#383838" stroke="#383838"></path><path d="M226.4 215L172.7 447L313.4 419Z" fill="#2f2f2f" stroke="#2f2f2f"></path><path d="M231.4 571L173.7 684L366.4 683Z" fill="#2f2f2f" stroke="#2f2f2f"></path><path d="M1746.3 468L1643.6 338L1500.9 498Z" fill="#2f2f2f" stroke="#2f2f2f"></path><path d="M1582.6 327L1706.3 243L1581.6 166Z" fill="#353535" stroke="#353535"></path><path d="M1166.5 1080L1280.2 1080L1118.5 963Z" fill="#3d3d3d" stroke="#3d3d3d"></path><path d="M1347.2 993L1473.9 1080L1445.9 899Z" fill="#3a3a3a" stroke="#3a3a3a"></path><path d="M1581.6 166L1539.9 0L1480.9 86Z" fill="#2f2f2f" stroke="#2f2f2f"></path><path d="M1480.9 86L1539.9 0L1266.2 0Z" fill="#353535" stroke="#353535"></path><path d="M1638.6 0L1539.9 0L1581.6 166Z" fill="#373737" stroke="#373737"></path><path d="M1647.6 770L1665.6 607L1572.6 631Z" fill="#3b3b3b" stroke="#3b3b3b"></path><path d="M1572.6 631L1665.6 607L1500.9 498Z" fill="#2f2f2f" stroke="#2f2f2f"></path><path d="M1647.6 770L1572.6 631L1530.9 739Z" fill="#3b3b3b" stroke="#3b3b3b"></path><path d="M76.7 560L173.7 684L231.4 571Z" fill="#3a3a3a" stroke="#3a3a3a"></path><path d="M336.4 1080L441.1 1000L331.4 874Z" fill="#303030" stroke="#303030"></path><path d="M244.4 160L132.7 221L226.4 215Z" fill="#303030" stroke="#303030"></path><path d="M226.4 215L132.7 221L172.7 447Z" fill="#3b3b3b" stroke="#3b3b3b"></path><path d="M172.7 447L76.7 560L231.4 571Z" fill="#333333" stroke="#333333"></path><path d="M99.7 207L132.7 221L244.4 160Z" fill="#373737" stroke="#373737"></path><path d="M1445.9 899L1647.6 770L1530.9 739Z" fill="#323232" stroke="#323232"></path><path d="M1565.6 993L1647.6 770L1445.9 899Z" fill="#303030" stroke="#303030"></path><path d="M1746.3 468L1706.3 243L1643.6 338Z" fill="#373737" stroke="#373737"></path><path d="M1643.6 338L1706.3 243L1582.6 327Z" fill="#353535" stroke="#353535"></path><path d="M1746.3 468L1500.9 498L1665.6 607Z" fill="#3a3a3a" stroke="#3a3a3a"></path><path d="M199.7 866L331.4 874L269.4 799Z" fill="#303030" stroke="#303030"></path><path d="M336.4 1080L386.1 1080L441.1 1000Z" fill="#2f2f2f" stroke="#2f2f2f"></path><path d="M441.1 1000L386.1 1080L590.8 1080Z" fill="#353535" stroke="#353535"></path><path d="M173.7 684L199.7 866L269.4 799Z" fill="#2f2f2f" stroke="#2f2f2f"></path><path d="M1748.3 499L1746.3 468L1665.6 607Z" fill="#333333" stroke="#333333"></path><path d="M1773.3 713L1748.3 499L1665.6 607Z" fill="#373737" stroke="#373737"></path><path d="M123.7 0L99.7 207L244.4 160Z" fill="#2d2d2d" stroke="#2d2d2d"></path><path d="M132.7 221L0 347L172.7 447Z" fill="#333333" stroke="#333333"></path><path d="M173.7 684L0 777L199.7 866Z" fill="#383838" stroke="#383838"></path><path d="M0 347L76.7 560L172.7 447Z" fill="#3d3d3d" stroke="#3d3d3d"></path><path d="M1723.3 0L1638.6 0L1581.6 166Z" fill="#3a3a3a" stroke="#3a3a3a"></path><path d="M1280.2 1080L1473.9 1080L1347.2 993Z" fill="#3d3d3d" stroke="#3d3d3d"></path><path d="M1473.9 1080L1565.6 993L1445.9 899Z" fill="#383838" stroke="#383838"></path><path d="M1647.6 770L1773.3 713L1665.6 607Z" fill="#383838" stroke="#383838"></path><path d="M208.7 971L336.4 1080L331.4 874Z" fill="#373737" stroke="#373737"></path><path d="M182.7 1080L208.7 971L0 1080Z" fill="#383838" stroke="#383838"></path><path d="M199.7 866L208.7 971L331.4 874Z" fill="#303030" stroke="#303030"></path><path d="M336.4 0L123.7 0L244.4 160Z" fill="#2d2d2d" stroke="#2d2d2d"></path><path d="M1565.6 993L1720.3 836L1647.6 770Z" fill="#3b3b3b" stroke="#3b3b3b"></path><path d="M1720.3 836L1773.3 713L1647.6 770Z" fill="#3d3d3d" stroke="#3d3d3d"></path><path d="M1920 237L1706.3 243L1746.3 468Z" fill="#323232" stroke="#323232"></path><path d="M0 305L132.7 221L99.7 207Z" fill="#2d2d2d" stroke="#2d2d2d"></path><path d="M0 305L0 347L132.7 221Z" fill="#303030" stroke="#303030"></path><path d="M76.7 560L0 605L173.7 684Z" fill="#373737" stroke="#373737"></path><path d="M0 97L0 305L99.7 207Z" fill="#3d3d3d" stroke="#3d3d3d"></path><path d="M1706.3 243L1723.3 0L1581.6 166Z" fill="#3d3d3d" stroke="#3d3d3d"></path><path d="M1806.3 183L1723.3 0L1706.3 243Z" fill="#353535" stroke="#353535"></path><path d="M1806.3 183L1706.3 243L1920 237Z" fill="#353535" stroke="#353535"></path><path d="M0 347L0 599L76.7 560Z" fill="#3d3d3d" stroke="#3d3d3d"></path><path d="M0 599L0 605L76.7 560Z" fill="#3d3d3d" stroke="#3d3d3d"></path><path d="M1920 469L1746.3 468L1748.3 499Z" fill="#353535" stroke="#353535"></path><path d="M0 898L208.7 971L199.7 866Z" fill="#2f2f2f" stroke="#2f2f2f"></path><path d="M208.7 971L182.7 1080L336.4 1080Z" fill="#3a3a3a" stroke="#3a3a3a"></path><path d="M123.7 0L0 97L99.7 207Z" fill="#353535" stroke="#353535"></path><path d="M0 605L0 777L173.7 684Z" fill="#2d2d2d" stroke="#2d2d2d"></path><path d="M1473.9 1080L1675.6 1080L1565.6 993Z" fill="#3b3b3b" stroke="#3b3b3b"></path><path d="M1565.6 993L1757.3 973L1720.3 836Z" fill="#3a3a3a" stroke="#3a3a3a"></path><path d="M1920 817L1920 721L1773.3 713Z" fill="#2f2f2f" stroke="#2f2f2f"></path><path d="M1675.6 1080L1757.3 973L1565.6 993Z" fill="#3d3d3d" stroke="#3d3d3d"></path><path d="M1920 612L1920 469L1748.3 499Z" fill="#3d3d3d" stroke="#3d3d3d"></path><path d="M1920 612L1748.3 499L1773.3 713Z" fill="#3d3d3d" stroke="#3d3d3d"></path><path d="M123.7 0L0 0L0 97Z" fill="#2f2f2f" stroke="#2f2f2f"></path><path d="M0 777L0 898L199.7 866Z" fill="#373737" stroke="#373737"></path><path d="M1920 721L1920 612L1773.3 713Z" fill="#373737" stroke="#373737"></path><path d="M1920 469L1920 237L1746.3 468Z" fill="#2f2f2f" stroke="#2f2f2f"></path><path d="M1806.3 183L1920 0L1723.3 0Z" fill="#303030" stroke="#303030"></path><path d="M1920 237L1920 175L1806.3 183Z" fill="#373737" stroke="#373737"></path><path d="M1920 817L1773.3 713L1720.3 836Z" fill="#323232" stroke="#323232"></path><path d="M1675.6 1080L1755.3 1080L1757.3 973Z" fill="#333333" stroke="#333333"></path><path d="M1920 876L1920 817L1720.3 836Z" fill="#2f2f2f" stroke="#2f2f2f"></path><path d="M1920 876L1720.3 836L1757.3 973Z" fill="#3a3a3a" stroke="#3a3a3a"></path><path d="M1920 175L1920 0L1806.3 183Z" fill="#3a3a3a" stroke="#3a3a3a"></path><path d="M1920 1080L1920 876L1757.3 973Z" fill="#333333" stroke="#333333"></path><path d="M0 898L0 1080L208.7 971Z" fill="#3d3d3d" stroke="#3d3d3d"></path><path d="M1755.3 1080L1920 1080L1757.3 973Z" fill="#303030" stroke="#303030"></path></g></svg>